<svg width="174" height="44" viewBox="0 0 174 44" fill="none" xmlns="http://www.w3.org/2000/svg">
<path d="M10.2695 23.4614L23.1246 20.0169" stroke="#2D2D2D" stroke-width="3.13142" stroke-linecap="round"/>
<path d="M16.2246 27.5388L24.5426 25.31" stroke="#2D2D2D" stroke-width="3.13142" stroke-linecap="round"/>
<path d="M14.694 35.4371C11.6307 36.2579 10.6912 36.5096 8.83679 37.0065C7.26918 37.4265 5.65739 36.4964 5.23735 34.9288L1.76055 21.9532C1.34051 20.3855 2.2708 18.7742 3.83841 18.3542L26.1402 12.3784C27.7078 11.9584 29.3191 12.8887 29.7392 14.4563L33.216 27.4319C33.636 28.9995 32.7057 30.6108 31.1381 31.0309L29.8175 31.3847" stroke="#2D2D2D" stroke-width="3.13142" stroke-linecap="round"/>
<path d="M26.0513 35.3193L20.5713 39.0149" stroke="#2D2D2D" stroke-width="3.13142" stroke-linecap="round"/>
<path d="M25.9791 35.3193L20.5713 31.7485" stroke="#2D2D2D" stroke-width="3.13142" stroke-linecap="round"/>
<path d="M13.9515 14.6675L8.18506 2" stroke="#2D2D2D" stroke-width="3.13142" stroke-linecap="round"/>
<path d="M13.9512 14.5627L19.1448 6.69727" stroke="#2D2D2D" stroke-width="3.13142" stroke-linecap="round"/>
<path d="M49.0371 20.9741V23.6259H40.4376V20.9741H49.0371ZM42.5875 35.5212V19.6008C42.5875 18.6222 42.7895 17.8077 43.1936 17.1574C43.604 16.5071 44.1533 16.0209 44.8415 15.6989C45.5297 15.3769 46.2937 15.2159 47.1334 15.2159C47.7269 15.2159 48.2541 15.2632 48.7151 15.3579C49.176 15.4526 49.5169 15.5379 49.7379 15.6136L49.056 18.2655C48.9108 18.2213 48.7277 18.1771 48.5067 18.1329C48.2857 18.0824 48.0395 18.0571 47.768 18.0571C47.1303 18.0571 46.6788 18.2118 46.4137 18.5212C46.1548 18.8242 46.0254 19.2599 46.0254 19.8281V35.5212H42.5875ZM51.722 35.5212V20.9741H55.0463V23.3986H55.1978C55.463 22.5589 55.9176 21.9117 56.5616 21.4571C57.2119 20.9962 57.9538 20.7658 58.7872 20.7658C58.9767 20.7658 59.1882 20.7752 59.4218 20.7942C59.6617 20.8068 59.8606 20.8289 60.0184 20.8605V24.0142C59.8732 23.9637 59.6428 23.9195 59.3271 23.8816C59.0177 23.8374 58.7178 23.8153 58.4274 23.8153C57.8023 23.8153 57.2403 23.9511 56.7416 24.2226C56.2491 24.4878 55.8608 24.8571 55.5766 25.3307C55.2925 25.8042 55.1505 26.3504 55.1505 26.9691V35.5212H51.722ZM66.2218 35.8148C65.3 35.8148 64.4697 35.6507 63.731 35.3224C62.9986 34.9877 62.4177 34.4952 61.9884 33.8449C61.5653 33.1946 61.3538 32.3927 61.3538 31.4393C61.3538 30.6185 61.5054 29.9398 61.8084 29.4031C62.1115 28.8664 62.525 28.4371 63.0491 28.1151C63.5732 27.7931 64.1635 27.55 64.8201 27.3858C65.4831 27.2154 66.1681 27.0922 66.8753 27.0165C67.7277 26.9281 68.419 26.8492 68.9494 26.7797C69.4798 26.7039 69.8649 26.5903 70.1048 26.4388C70.3511 26.2809 70.4742 26.0378 70.4742 25.7095V25.6527C70.4742 24.9392 70.2627 24.3867 69.8397 23.9953C69.4166 23.6038 68.8073 23.4081 68.0118 23.4081C67.1721 23.4081 66.5059 23.5912 66.0135 23.9574C65.5273 24.3236 65.199 24.7561 65.0285 25.2549L61.8274 24.8003C62.0799 23.9164 62.4966 23.1776 63.0775 22.5841C63.6584 21.9843 64.3687 21.536 65.2084 21.2393C66.0482 20.9362 66.9763 20.7847 67.9929 20.7847C68.6937 20.7847 69.3914 20.8668 70.0859 21.0309C70.7804 21.1951 71.415 21.4666 71.9895 21.8454C72.5641 22.2179 73.025 22.7262 73.3723 23.3702C73.7258 24.0142 73.9026 24.8192 73.9026 25.7853V35.5212H70.6068V33.5229H70.4931C70.2848 33.927 69.9912 34.3058 69.6124 34.6594C69.2398 35.0067 68.7695 35.2876 68.2012 35.5023C67.6393 35.7107 66.9795 35.8148 66.2218 35.8148ZM67.1121 33.2956C67.8003 33.2956 68.3969 33.1599 68.902 32.8884C69.4072 32.6106 69.7955 32.2443 70.067 31.7897C70.3448 31.3352 70.4837 30.8395 70.4837 30.3028V28.5886C70.3763 28.677 70.1932 28.7591 69.9344 28.8349C69.6818 28.9106 69.3977 28.9769 69.082 29.0337C68.7663 29.0906 68.4538 29.1411 68.1444 29.1853C67.835 29.2295 67.5667 29.2674 67.3394 29.2989C66.8279 29.3684 66.3702 29.482 65.9661 29.6399C65.562 29.7977 65.2432 30.0187 65.0096 30.3028C64.7759 30.5806 64.6591 30.9405 64.6591 31.3825C64.6591 32.0139 64.8896 32.4906 65.3505 32.8126C65.8114 33.1346 66.3986 33.2956 67.1121 33.2956ZM77.35 35.5212V20.9741H80.6269V23.446H80.7974C81.1004 22.6126 81.6024 21.9622 82.3032 21.495C83.0041 21.0215 83.8406 20.7847 84.813 20.7847C85.7979 20.7847 86.6282 21.0246 87.3038 21.5045C87.9857 21.978 88.4655 22.6252 88.7434 23.446H88.8949C89.2169 22.6378 89.7599 21.9938 90.5239 21.5139C91.2942 21.0278 92.2065 20.7847 93.2609 20.7847C94.5995 20.7847 95.6918 21.2077 96.5378 22.0538C97.3839 22.8998 97.8069 24.1342 97.8069 25.7569V35.5212H94.369V26.2872C94.369 25.3843 94.1291 24.7245 93.6492 24.3078C93.1694 23.8848 92.5822 23.6733 91.8877 23.6733C91.0605 23.6733 90.4134 23.9322 89.9461 24.4499C89.4852 24.9613 89.2548 25.6274 89.2548 26.4482V35.5212H85.8926V26.1452C85.8926 25.3938 85.6653 24.794 85.2107 24.3457C84.7625 23.8974 84.1753 23.6733 83.4492 23.6733C82.9567 23.6733 82.5084 23.7996 82.1043 24.0521C81.7002 24.2984 81.3782 24.6488 81.1383 25.1034C80.8984 25.5517 80.7784 26.0757 80.7784 26.6755V35.5212H77.35ZM107.725 35.8054C106.267 35.8054 105.007 35.5023 103.946 34.8962C102.892 34.2837 102.081 33.4187 101.512 32.3012C100.944 31.1773 100.66 29.8546 100.66 28.3329C100.66 26.8365 100.944 25.5232 101.512 24.3931C102.087 23.2566 102.889 22.3726 103.918 21.7412C104.947 21.1035 106.156 20.7847 107.545 20.7847C108.442 20.7847 109.288 20.9299 110.083 21.2203C110.885 21.5045 111.592 21.9464 112.205 22.5463C112.824 23.1461 113.31 23.9101 113.663 24.8382C114.017 25.76 114.194 26.8586 114.194 28.134V29.1853H102.27V26.8744H110.907C110.901 26.2178 110.759 25.6337 110.481 25.1223C110.203 24.6046 109.815 24.1973 109.316 23.9006C108.824 23.6038 108.249 23.4555 107.593 23.4555C106.892 23.4555 106.276 23.6259 105.746 23.9669C105.215 24.3015 104.802 24.7435 104.505 25.2928C104.215 25.8358 104.066 26.4324 104.06 27.0828V29.1C104.06 29.9461 104.215 30.6722 104.524 31.2783C104.833 31.8781 105.266 32.3391 105.822 32.6611C106.377 32.9768 107.027 33.1346 107.773 33.1346C108.271 33.1346 108.723 33.0651 109.127 32.9262C109.531 32.781 109.881 32.5695 110.178 32.2917C110.475 32.0139 110.699 31.6698 110.851 31.2594L114.052 31.6193C113.85 32.4653 113.464 33.2041 112.896 33.8354C112.334 34.4605 111.615 34.9467 110.737 35.2939C109.859 35.6349 108.855 35.8054 107.725 35.8054ZM117.246 35.5212V16.1251H124.519C126.009 16.1251 127.259 16.3839 128.27 16.9017C129.286 17.4194 130.053 18.1455 130.571 19.0799C131.095 20.0081 131.357 21.0909 131.357 22.3284C131.357 23.5723 131.092 24.6519 130.562 25.5674C130.038 26.4766 129.264 27.1806 128.241 27.6794C127.218 28.1719 125.962 28.4181 124.472 28.4181H119.291V25.5011H123.998C124.87 25.5011 125.583 25.3812 126.139 25.1413C126.694 24.895 127.105 24.5383 127.37 24.0711C127.641 23.5975 127.777 23.0166 127.777 22.3284C127.777 21.6402 127.641 21.053 127.37 20.5669C127.098 20.0744 126.685 19.7019 126.129 19.4493C125.574 19.1904 124.857 19.061 123.979 19.061H120.759V35.5212H117.246ZM127.266 26.7323L132.067 35.5212H128.147L123.43 26.7323H127.266ZM138.626 35.8148C137.704 35.8148 136.874 35.6507 136.135 35.3224C135.403 34.9877 134.822 34.4952 134.393 33.8449C133.97 33.1946 133.758 32.3927 133.758 31.4393C133.758 30.6185 133.91 29.9398 134.213 29.4031C134.516 28.8664 134.929 28.4371 135.453 28.1151C135.977 27.7931 136.568 27.55 137.224 27.3858C137.887 27.2154 138.572 27.0922 139.279 27.0165C140.132 26.9281 140.823 26.8492 141.354 26.7797C141.884 26.7039 142.269 26.5903 142.509 26.4388C142.755 26.2809 142.878 26.0378 142.878 25.7095V25.6527C142.878 24.9392 142.667 24.3867 142.244 23.9953C141.821 23.6038 141.212 23.4081 140.416 23.4081C139.576 23.4081 138.91 23.5912 138.418 23.9574C137.931 24.3236 137.603 24.7561 137.433 25.2549L134.232 24.8003C134.484 23.9164 134.901 23.1776 135.482 22.5841C136.063 21.9843 136.773 21.536 137.613 21.2393C138.452 20.9362 139.381 20.7847 140.397 20.7847C141.098 20.7847 141.796 20.8668 142.49 21.0309C143.185 21.1951 143.819 21.4666 144.394 21.8454C144.968 22.2179 145.429 22.7262 145.776 23.3702C146.13 24.0142 146.307 24.8192 146.307 25.7853V35.5212H143.011V33.5229H142.897C142.689 33.927 142.395 34.3058 142.017 34.6594C141.644 35.0067 141.174 35.2876 140.605 35.5023C140.043 35.7107 139.384 35.8148 138.626 35.8148ZM139.516 33.2956C140.204 33.2956 140.801 33.1599 141.306 32.8884C141.811 32.6106 142.2 32.2443 142.471 31.7897C142.749 31.3352 142.888 30.8395 142.888 30.3028V28.5886C142.781 28.677 142.597 28.7591 142.339 28.8349C142.086 28.9106 141.802 28.9769 141.486 29.0337C141.17 29.0906 140.858 29.1411 140.549 29.1853C140.239 29.2295 139.971 29.2674 139.744 29.2989C139.232 29.3684 138.774 29.482 138.37 29.6399C137.966 29.7977 137.647 30.0187 137.414 30.3028C137.18 30.5806 137.063 30.9405 137.063 31.3825C137.063 32.0139 137.294 32.4906 137.755 32.8126C138.216 33.1346 138.803 33.2956 139.516 33.2956ZM157.018 20.9741V23.6259H148.656V20.9741H157.018ZM150.72 17.4889H154.149V31.1457C154.149 31.6066 154.218 31.9602 154.357 32.2065C154.502 32.4464 154.692 32.6106 154.925 32.6989C155.159 32.7873 155.418 32.8315 155.702 32.8315C155.917 32.8315 156.112 32.8158 156.289 32.7842C156.472 32.7526 156.611 32.7242 156.706 32.6989L157.283 35.3792C157.1 35.4423 156.838 35.5118 156.497 35.5875C156.163 35.6633 155.752 35.7075 155.266 35.7201C154.407 35.7454 153.634 35.6159 152.946 35.3318C152.258 35.0414 151.711 34.5931 151.307 33.987C150.91 33.3808 150.714 32.6232 150.72 31.714V17.4889ZM166.169 35.8054C164.711 35.8054 163.451 35.5023 162.391 34.8962C161.336 34.2837 160.525 33.4187 159.957 32.3012C159.388 31.1773 159.104 29.8546 159.104 28.3329C159.104 26.8365 159.388 25.5232 159.957 24.3931C160.531 23.2566 161.333 22.3726 162.362 21.7412C163.391 21.1035 164.6 20.7847 165.989 20.7847C166.886 20.7847 167.732 20.9299 168.528 21.2203C169.33 21.5045 170.037 21.9464 170.649 22.5463C171.268 23.1461 171.754 23.9101 172.108 24.8382C172.461 25.76 172.638 26.8586 172.638 28.134V29.1853H160.714V26.8744H169.352C169.345 26.2178 169.203 25.6337 168.925 25.1223C168.648 24.6046 168.259 24.1973 167.761 23.9006C167.268 23.6038 166.693 23.4555 166.037 23.4555C165.336 23.4555 164.72 23.6259 164.19 23.9669C163.66 24.3015 163.246 24.7435 162.949 25.2928C162.659 25.8358 162.511 26.4324 162.504 27.0828V29.1C162.504 29.9461 162.659 30.6722 162.968 31.2783C163.278 31.8781 163.71 32.3391 164.266 32.6611C164.821 32.9768 165.472 33.1346 166.217 33.1346C166.716 33.1346 167.167 33.0651 167.571 32.9262C167.975 32.781 168.326 32.5695 168.622 32.2917C168.919 32.0139 169.143 31.6698 169.295 31.2594L172.496 31.6193C172.294 32.4653 171.909 33.2041 171.34 33.8354C170.779 34.4605 170.059 34.9467 169.181 35.2939C168.304 35.6349 167.3 35.8054 166.169 35.8054Z" fill="#2D2D2D"/>
</svg>
