<svg width="179" height="44" viewBox="0 0 179 44" fill="none" xmlns="http://www.w3.org/2000/svg">
<path d="M18.9731 14.3041L13.3721 2" stroke="#1C02BD" stroke-width="3.04158" stroke-linecap="round"/>
<path d="M18.9731 14.202L24.0178 6.56226" stroke="#1C02BD" stroke-width="3.04158" stroke-linecap="round"/>
<path d="M15.3965 22.8455L27.8827 19.4998" stroke="#1C02BD" stroke-width="3.04158" stroke-linecap="round"/>
<path d="M21.1812 26.8062L29.2605 24.6413" stroke="#1C02BD" stroke-width="3.04158" stroke-linecap="round"/>
<path d="M19.6946 34.4778C16.7192 35.2751 15.8067 35.5196 14.0055 36.0022C12.4829 36.4102 10.9173 35.5067 10.5093 33.9841L7.13228 21.3808C6.72429 19.8581 7.62789 18.293 9.15053 17.885L30.8124 12.0807C32.3351 11.6727 33.9002 12.5763 34.3081 14.099L37.6852 26.7023C38.0932 28.225 37.1896 29.79 35.6669 30.198L34.3843 30.5417" stroke="#1C02BD" stroke-width="3.04158" stroke-linecap="round"/>
<path d="M30.7261 34.3633L25.4033 37.9529" stroke="#1C02BD" stroke-width="3.04158" stroke-linecap="round"/>
<path d="M30.656 34.3633L25.4033 30.8948" stroke="#1C02BD" stroke-width="3.04158" stroke-linecap="round"/>
<path d="M13.5795 15.5026L7.97852 3.19849" stroke="#FF2BAA" stroke-width="3.04158" stroke-linecap="round"/>
<path d="M13.5795 15.5026L7.97852 3.19849" stroke="#FF2BAA" stroke-width="3.04158" stroke-linecap="round"/>
<path d="M13.5795 15.5026L7.97852 3.19849" stroke="#FF2BAA" stroke-width="3.04158" stroke-linecap="round"/>
<path d="M13.5796 15.4005L18.6242 7.76074" stroke="#FF2BAA" stroke-width="3.04158" stroke-linecap="round"/>
<path d="M13.5796 15.4005L18.6242 7.76074" stroke="#FF2BAA" stroke-width="3.04158" stroke-linecap="round"/>
<path d="M13.5796 15.4005L18.6242 7.76074" stroke="#FF2BAA" stroke-width="3.04158" stroke-linecap="round"/>
<path d="M10.0029 24.0442L22.4891 20.6985" stroke="#FF2BAA" stroke-width="3.04158" stroke-linecap="round"/>
<path d="M10.0029 24.0442L22.4891 20.6985" stroke="#FF2BAA" stroke-width="3.04158" stroke-linecap="round"/>
<path d="M10.0029 24.0442L22.4891 20.6985" stroke="#FF2BAA" stroke-width="3.04158" stroke-linecap="round"/>
<path d="M15.7876 28.0049L23.8669 25.84" stroke="#FF2BAA" stroke-width="3.04158" stroke-linecap="round"/>
<path d="M15.7876 28.0049L23.8669 25.84" stroke="#FF2BAA" stroke-width="3.04158" stroke-linecap="round"/>
<path d="M15.7876 28.0049L23.8669 25.84" stroke="#FF2BAA" stroke-width="3.04158" stroke-linecap="round"/>
<path d="M14.3011 35.6763C11.3257 36.4736 10.4131 36.7181 8.61195 37.2007C7.08931 37.6087 5.52376 36.7052 5.11577 35.1826L1.73873 22.5792C1.33074 21.0566 2.23434 19.4915 3.75698 19.0835L25.4189 13.2792C26.9415 12.8712 28.5066 13.7748 28.9146 15.2975L32.2916 27.9008C32.6996 29.4235 31.796 30.9885 30.2734 31.3965L28.9907 31.7402" stroke="#FF2BAA" stroke-width="3.04158" stroke-linecap="round"/>
<path d="M14.3011 35.6763C11.3257 36.4736 10.4131 36.7181 8.61195 37.2007C7.08931 37.6087 5.52376 36.7052 5.11577 35.1826L1.73873 22.5792C1.33074 21.0566 2.23434 19.4915 3.75698 19.0835L25.4189 13.2792C26.9415 12.8712 28.5066 13.7748 28.9146 15.2975L32.2916 27.9008C32.6996 29.4235 31.796 30.9885 30.2734 31.3965L28.9907 31.7402" stroke="#FF2BAA" stroke-width="3.04158" stroke-linecap="round"/>
<path d="M14.3011 35.6763C11.3257 36.4736 10.4131 36.7181 8.61195 37.2007C7.08931 37.6087 5.52376 36.7052 5.11577 35.1826L1.73873 22.5792C1.33074 21.0566 2.23434 19.4915 3.75698 19.0835L25.4189 13.2792C26.9415 12.8712 28.5066 13.7748 28.9146 15.2975L32.2916 27.9008C32.6996 29.4235 31.796 30.9885 30.2734 31.3965L28.9907 31.7402" stroke="#FF2BAA" stroke-width="3.04158" stroke-linecap="round"/>
<path d="M25.3325 35.5623L20.0098 39.1519" stroke="#FF2BAA" stroke-width="3.04158" stroke-linecap="round"/>
<path d="M25.3325 35.5623L20.0098 39.1519" stroke="#FF2BAA" stroke-width="3.04158" stroke-linecap="round"/>
<path d="M25.3325 35.5623L20.0098 39.1519" stroke="#FF2BAA" stroke-width="3.04158" stroke-linecap="round"/>
<path d="M25.2624 35.562L20.0098 32.0936" stroke="#FF2BAA" stroke-width="3.04158" stroke-linecap="round"/>
<path d="M25.2624 35.562L20.0098 32.0936" stroke="#FF2BAA" stroke-width="3.04158" stroke-linecap="round"/>
<path d="M25.2624 35.562L20.0098 32.0936" stroke="#FF2BAA" stroke-width="3.04158" stroke-linecap="round"/>
<path d="M15.9765 14.3041L10.3755 2" stroke="white" stroke-width="3.04158" stroke-linecap="round"/>
<path d="M15.9766 14.202L21.0212 6.56226" stroke="white" stroke-width="3.04158" stroke-linecap="round"/>
<path d="M12.4004 22.8455L24.8866 19.4998" stroke="white" stroke-width="3.04158" stroke-linecap="round"/>
<path d="M18.1851 26.8062L26.2644 24.6413" stroke="white" stroke-width="3.04158" stroke-linecap="round"/>
<path d="M16.698 34.4778C13.7226 35.2751 12.8101 35.5196 11.0089 36.0022C9.48628 36.4102 7.92073 35.5067 7.51275 33.9841L4.1357 21.3808C3.72771 19.8581 4.63131 18.293 6.15395 17.885L27.8159 12.0807C29.3385 11.6727 30.9036 12.5763 31.3116 14.099L34.6886 26.7023C35.0966 28.225 34.193 29.79 32.6704 30.198L31.3877 30.5417" stroke="white" stroke-width="3.04158" stroke-linecap="round"/>
<path d="M27.73 34.3638L22.4072 37.9534" stroke="white" stroke-width="3.04158" stroke-linecap="round"/>
<path d="M27.6599 34.3635L22.4072 30.8951" stroke="white" stroke-width="3.04158" stroke-linecap="round"/>
<path d="M51.0371 21.9741V24.6259H42.4376V21.9741H51.0371ZM44.5875 36.5212V20.6008C44.5875 19.6222 44.7895 18.8077 45.1936 18.1574C45.604 17.5071 46.1533 17.0209 46.8415 16.6989C47.5297 16.3769 48.2937 16.2159 49.1334 16.2159C49.7269 16.2159 50.2541 16.2632 50.7151 16.3579C51.176 16.4526 51.5169 16.5379 51.7379 16.6136L51.056 19.2655C50.9108 19.2213 50.7277 19.1771 50.5067 19.1329C50.2857 19.0824 50.0395 19.0571 49.768 19.0571C49.1303 19.0571 48.6788 19.2118 48.4137 19.5212C48.1548 19.8242 48.0254 20.2599 48.0254 20.8281V36.5212H44.5875ZM53.722 36.5212V21.9741H57.0463V24.3986H57.1978C57.463 23.5589 57.9176 22.9117 58.5616 22.4571C59.2119 21.9962 59.9538 21.7658 60.7872 21.7658C60.9767 21.7658 61.1882 21.7752 61.4218 21.7942C61.6617 21.8068 61.8606 21.8289 62.0184 21.8605V25.0142C61.8732 24.9637 61.6428 24.9195 61.3271 24.8816C61.0177 24.8374 60.7178 24.8153 60.4274 24.8153C59.8023 24.8153 59.2403 24.9511 58.7416 25.2226C58.2491 25.4878 57.8608 25.8571 57.5766 26.3307C57.2925 26.8042 57.1505 27.3504 57.1505 27.9691V36.5212H53.722ZM68.2218 36.8148C67.3 36.8148 66.4697 36.6507 65.731 36.3224C64.9986 35.9877 64.4177 35.4952 63.9884 34.8449C63.5653 34.1946 63.3538 33.3927 63.3538 32.4393C63.3538 31.6185 63.5054 30.9398 63.8084 30.4031C64.1115 29.8664 64.525 29.4371 65.0491 29.1151C65.5732 28.7931 66.1635 28.55 66.8201 28.3858C67.4831 28.2154 68.1681 28.0922 68.8753 28.0165C69.7277 27.9281 70.419 27.8492 70.9494 27.7797C71.4798 27.7039 71.8649 27.5903 72.1048 27.4388C72.3511 27.2809 72.4742 27.0378 72.4742 26.7095V26.6527C72.4742 25.9392 72.2627 25.3867 71.8397 24.9953C71.4166 24.6038 70.8073 24.4081 70.0118 24.4081C69.1721 24.4081 68.5059 24.5912 68.0135 24.9574C67.5273 25.3236 67.199 25.7561 67.0285 26.2549L63.8274 25.8003C64.0799 24.9164 64.4966 24.1776 65.0775 23.5841C65.6584 22.9843 66.3687 22.536 67.2084 22.2393C68.0482 21.9362 68.9763 21.7847 69.9929 21.7847C70.6937 21.7847 71.3914 21.8668 72.0859 22.0309C72.7804 22.1951 73.415 22.4666 73.9895 22.8454C74.5641 23.2179 75.025 23.7262 75.3723 24.3702C75.7258 25.0142 75.9026 25.8192 75.9026 26.7853V36.5212H72.6068V34.5229H72.4931C72.2848 34.927 71.9912 35.3058 71.6124 35.6594C71.2398 36.0067 70.7695 36.2876 70.2012 36.5023C69.6393 36.7107 68.9795 36.8148 68.2218 36.8148ZM69.1121 34.2956C69.8003 34.2956 70.3969 34.1599 70.902 33.8884C71.4072 33.6106 71.7955 33.2443 72.067 32.7897C72.3448 32.3352 72.4837 31.8395 72.4837 31.3028V29.5886C72.3763 29.677 72.1932 29.7591 71.9344 29.8349C71.6818 29.9106 71.3977 29.9769 71.082 30.0337C70.7663 30.0906 70.4538 30.1411 70.1444 30.1853C69.835 30.2295 69.5667 30.2674 69.3394 30.2989C68.8279 30.3684 68.3702 30.482 67.9661 30.6399C67.562 30.7977 67.2432 31.0187 67.0096 31.3028C66.7759 31.5806 66.6591 31.9405 66.6591 32.3825C66.6591 33.0139 66.8896 33.4906 67.3505 33.8126C67.8114 34.1346 68.3986 34.2956 69.1121 34.2956ZM79.35 36.5212V21.9741H82.6269V24.446H82.7974C83.1004 23.6126 83.6024 22.9622 84.3032 22.495C85.0041 22.0215 85.8406 21.7847 86.813 21.7847C87.7979 21.7847 88.6282 22.0246 89.3038 22.5045C89.9857 22.978 90.4655 23.6252 90.7434 24.446H90.8949C91.2169 23.6378 91.7599 22.9938 92.5239 22.5139C93.2942 22.0278 94.2065 21.7847 95.2609 21.7847C96.5995 21.7847 97.6918 22.2077 98.5378 23.0538C99.3839 23.8998 99.8069 25.1342 99.8069 26.7569V36.5212H96.369V27.2872C96.369 26.3843 96.1291 25.7245 95.6492 25.3078C95.1694 24.8848 94.5822 24.6733 93.8877 24.6733C93.0605 24.6733 92.4134 24.9322 91.9461 25.4499C91.4852 25.9613 91.2548 26.6274 91.2548 27.4482V36.5212H87.8926V27.1452C87.8926 26.3938 87.6653 25.794 87.2107 25.3457C86.7625 24.8974 86.1753 24.6733 85.4492 24.6733C84.9567 24.6733 84.5084 24.7996 84.1043 25.0521C83.7002 25.2984 83.3782 25.6488 83.1383 26.1034C82.8984 26.5517 82.7784 27.0757 82.7784 27.6755V36.5212H79.35ZM109.725 36.8054C108.267 36.8054 107.007 36.5023 105.946 35.8962C104.892 35.2837 104.081 34.4187 103.512 33.3012C102.944 32.1773 102.66 30.8546 102.66 29.3329C102.66 27.8365 102.944 26.5232 103.512 25.3931C104.087 24.2566 104.889 23.3726 105.918 22.7412C106.947 22.1035 108.156 21.7847 109.545 21.7847C110.442 21.7847 111.288 21.9299 112.083 22.2203C112.885 22.5045 113.592 22.9464 114.205 23.5463C114.824 24.1461 115.31 24.9101 115.663 25.8382C116.017 26.76 116.194 27.8586 116.194 29.134V30.1853H104.27V27.8744H112.907C112.901 27.2178 112.759 26.6337 112.481 26.1223C112.203 25.6046 111.815 25.1973 111.316 24.9006C110.824 24.6038 110.249 24.4555 109.593 24.4555C108.892 24.4555 108.276 24.6259 107.746 24.9669C107.215 25.3015 106.802 25.7435 106.505 26.2928C106.215 26.8358 106.066 27.4324 106.06 28.0828V30.1C106.06 30.9461 106.215 31.6722 106.524 32.2783C106.833 32.8781 107.266 33.3391 107.822 33.6611C108.377 33.9768 109.027 34.1346 109.773 34.1346C110.271 34.1346 110.723 34.0651 111.127 33.9262C111.531 33.781 111.881 33.5695 112.178 33.2917C112.475 33.0139 112.699 32.6698 112.851 32.2594L116.052 32.6193C115.85 33.4653 115.464 34.2041 114.896 34.8354C114.334 35.4605 113.615 35.9467 112.737 36.2939C111.859 36.6349 110.855 36.8054 109.725 36.8054ZM119.246 36.5212V17.1251H126.519C128.009 17.1251 129.259 17.3839 130.27 17.9017C131.286 18.4194 132.053 19.1455 132.571 20.0799C133.095 21.0081 133.357 22.0909 133.357 23.3284C133.357 24.5723 133.092 25.6519 132.562 26.5674C132.038 27.4766 131.264 28.1806 130.241 28.6794C129.218 29.1719 127.962 29.4181 126.472 29.4181H121.291V26.5011H125.998C126.87 26.5011 127.583 26.3812 128.139 26.1413C128.694 25.895 129.105 25.5383 129.37 25.0711C129.641 24.5975 129.777 24.0166 129.777 23.3284C129.777 22.6402 129.641 22.053 129.37 21.5669C129.098 21.0744 128.685 20.7019 128.129 20.4493C127.574 20.1904 126.857 20.061 125.979 20.061H122.759V36.5212H119.246ZM129.266 27.7323L134.067 36.5212H130.147L125.43 27.7323H129.266ZM140.626 36.8148C139.704 36.8148 138.874 36.6507 138.135 36.3224C137.403 35.9877 136.822 35.4952 136.393 34.8449C135.97 34.1946 135.758 33.3927 135.758 32.4393C135.758 31.6185 135.91 30.9398 136.213 30.4031C136.516 29.8664 136.929 29.4371 137.453 29.1151C137.977 28.7931 138.568 28.55 139.224 28.3858C139.887 28.2154 140.572 28.0922 141.279 28.0165C142.132 27.9281 142.823 27.8492 143.354 27.7797C143.884 27.7039 144.269 27.5903 144.509 27.4388C144.755 27.2809 144.878 27.0378 144.878 26.7095V26.6527C144.878 25.9392 144.667 25.3867 144.244 24.9953C143.821 24.6038 143.212 24.4081 142.416 24.4081C141.576 24.4081 140.91 24.5912 140.418 24.9574C139.931 25.3236 139.603 25.7561 139.433 26.2549L136.232 25.8003C136.484 24.9164 136.901 24.1776 137.482 23.5841C138.063 22.9843 138.773 22.536 139.613 22.2393C140.452 21.9362 141.381 21.7847 142.397 21.7847C143.098 21.7847 143.796 21.8668 144.49 22.0309C145.185 22.1951 145.819 22.4666 146.394 22.8454C146.968 23.2179 147.429 23.7262 147.776 24.3702C148.13 25.0142 148.307 25.8192 148.307 26.7853V36.5212H145.011V34.5229H144.897C144.689 34.927 144.395 35.3058 144.017 35.6594C143.644 36.0067 143.174 36.2876 142.605 36.5023C142.043 36.7107 141.384 36.8148 140.626 36.8148ZM141.516 34.2956C142.204 34.2956 142.801 34.1599 143.306 33.8884C143.811 33.6106 144.2 33.2443 144.471 32.7897C144.749 32.3352 144.888 31.8395 144.888 31.3028V29.5886C144.781 29.677 144.597 29.7591 144.339 29.8349C144.086 29.9106 143.802 29.9769 143.486 30.0337C143.17 30.0906 142.858 30.1411 142.549 30.1853C142.239 30.2295 141.971 30.2674 141.744 30.2989C141.232 30.3684 140.774 30.482 140.37 30.6399C139.966 30.7977 139.647 31.0187 139.414 31.3028C139.18 31.5806 139.063 31.9405 139.063 32.3825C139.063 33.0139 139.294 33.4906 139.755 33.8126C140.216 34.1346 140.803 34.2956 141.516 34.2956ZM159.018 21.9741V24.6259H150.656V21.9741H159.018ZM152.72 18.4889H156.149V32.1457C156.149 32.6066 156.218 32.9602 156.357 33.2065C156.502 33.4464 156.692 33.6106 156.925 33.6989C157.159 33.7873 157.418 33.8315 157.702 33.8315C157.917 33.8315 158.112 33.8158 158.289 33.7842C158.472 33.7526 158.611 33.7242 158.706 33.6989L159.283 36.3792C159.1 36.4423 158.838 36.5118 158.497 36.5875C158.163 36.6633 157.752 36.7075 157.266 36.7201C156.407 36.7454 155.634 36.6159 154.946 36.3318C154.258 36.0414 153.711 35.5931 153.307 34.987C152.91 34.3808 152.714 33.6232 152.72 32.714V18.4889ZM168.169 36.8054C166.711 36.8054 165.451 36.5023 164.391 35.8962C163.336 35.2837 162.525 34.4187 161.957 33.3012C161.388 32.1773 161.104 30.8546 161.104 29.3329C161.104 27.8365 161.388 26.5232 161.957 25.3931C162.531 24.2566 163.333 23.3726 164.362 22.7412C165.391 22.1035 166.6 21.7847 167.989 21.7847C168.886 21.7847 169.732 21.9299 170.528 22.2203C171.33 22.5045 172.037 22.9464 172.649 23.5463C173.268 24.1461 173.754 24.9101 174.108 25.8382C174.461 26.76 174.638 27.8586 174.638 29.134V30.1853H162.714V27.8744H171.352C171.345 27.2178 171.203 26.6337 170.925 26.1223C170.648 25.6046 170.259 25.1973 169.761 24.9006C169.268 24.6038 168.693 24.4555 168.037 24.4555C167.336 24.4555 166.72 24.6259 166.19 24.9669C165.66 25.3015 165.246 25.7435 164.949 26.2928C164.659 26.8358 164.511 27.4324 164.504 28.0828V30.1C164.504 30.9461 164.659 31.6722 164.968 32.2783C165.278 32.8781 165.71 33.3391 166.266 33.6611C166.821 33.9768 167.472 34.1346 168.217 34.1346C168.716 34.1346 169.167 34.0651 169.571 33.9262C169.975 33.781 170.326 33.5695 170.622 33.2917C170.919 33.0139 171.143 32.6698 171.295 32.2594L174.496 32.6193C174.294 33.4653 173.909 34.2041 173.34 34.8354C172.779 35.4605 172.059 35.9467 171.181 36.2939C170.304 36.6349 169.3 36.8054 168.169 36.8054Z" fill="#FF2BAA"/>
<path d="M54.0371 19.9741V22.6259H45.4376V19.9741H54.0371ZM47.5875 34.5212V18.6008C47.5875 17.6222 47.7895 16.8077 48.1936 16.1574C48.604 15.5071 49.1533 15.0209 49.8415 14.6989C50.5297 14.3769 51.2937 14.2159 52.1334 14.2159C52.7269 14.2159 53.2541 14.2632 53.7151 14.3579C54.176 14.4526 54.5169 14.5379 54.7379 14.6136L54.056 17.2655C53.9108 17.2213 53.7277 17.1771 53.5067 17.1329C53.2857 17.0824 53.0395 17.0571 52.768 17.0571C52.1303 17.0571 51.6788 17.2118 51.4137 17.5212C51.1548 17.8242 51.0254 18.2599 51.0254 18.8281V34.5212H47.5875ZM56.722 34.5212V19.9741H60.0463V22.3986H60.1978C60.463 21.5589 60.9176 20.9117 61.5616 20.4571C62.2119 19.9962 62.9538 19.7658 63.7872 19.7658C63.9767 19.7658 64.1882 19.7752 64.4218 19.7942C64.6617 19.8068 64.8606 19.8289 65.0184 19.8605V23.0142C64.8732 22.9637 64.6428 22.9195 64.3271 22.8816C64.0177 22.8374 63.7178 22.8153 63.4274 22.8153C62.8023 22.8153 62.2403 22.9511 61.7416 23.2226C61.2491 23.4878 60.8608 23.8571 60.5766 24.3307C60.2925 24.8042 60.1505 25.3504 60.1505 25.9691V34.5212H56.722ZM71.2218 34.8148C70.3 34.8148 69.4697 34.6507 68.731 34.3224C67.9986 33.9877 67.4177 33.4952 66.9884 32.8449C66.5653 32.1946 66.3538 31.3927 66.3538 30.4393C66.3538 29.6185 66.5054 28.9398 66.8084 28.4031C67.1115 27.8664 67.525 27.4371 68.0491 27.1151C68.5732 26.7931 69.1635 26.55 69.8201 26.3858C70.4831 26.2154 71.1681 26.0922 71.8753 26.0165C72.7277 25.9281 73.419 25.8492 73.9494 25.7797C74.4798 25.7039 74.8649 25.5903 75.1048 25.4388C75.3511 25.2809 75.4742 25.0378 75.4742 24.7095V24.6527C75.4742 23.9392 75.2627 23.3867 74.8397 22.9953C74.4166 22.6038 73.8073 22.4081 73.0118 22.4081C72.1721 22.4081 71.5059 22.5912 71.0135 22.9574C70.5273 23.3236 70.199 23.7561 70.0285 24.2549L66.8274 23.8003C67.0799 22.9164 67.4966 22.1776 68.0775 21.5841C68.6584 20.9843 69.3687 20.536 70.2084 20.2393C71.0482 19.9362 71.9763 19.7847 72.9929 19.7847C73.6937 19.7847 74.3914 19.8668 75.0859 20.0309C75.7804 20.1951 76.415 20.4666 76.9895 20.8454C77.5641 21.2179 78.025 21.7262 78.3723 22.3702C78.7258 23.0142 78.9026 23.8192 78.9026 24.7853V34.5212H75.6068V32.5229H75.4931C75.2848 32.927 74.9912 33.3058 74.6124 33.6594C74.2398 34.0067 73.7695 34.2876 73.2012 34.5023C72.6393 34.7107 71.9795 34.8148 71.2218 34.8148ZM72.1121 32.2956C72.8003 32.2956 73.3969 32.1599 73.902 31.8884C74.4072 31.6106 74.7955 31.2443 75.067 30.7897C75.3448 30.3352 75.4837 29.8395 75.4837 29.3028V27.5886C75.3763 27.677 75.1932 27.7591 74.9344 27.8349C74.6818 27.9106 74.3977 27.9769 74.082 28.0337C73.7663 28.0906 73.4538 28.1411 73.1444 28.1853C72.835 28.2295 72.5667 28.2674 72.3394 28.2989C71.8279 28.3684 71.3702 28.482 70.9661 28.6399C70.562 28.7977 70.2432 29.0187 70.0096 29.3028C69.7759 29.5806 69.6591 29.9405 69.6591 30.3825C69.6591 31.0139 69.8896 31.4906 70.3505 31.8126C70.8114 32.1346 71.3986 32.2956 72.1121 32.2956ZM82.35 34.5212V19.9741H85.6269V22.446H85.7974C86.1004 21.6126 86.6024 20.9622 87.3032 20.495C88.0041 20.0215 88.8406 19.7847 89.813 19.7847C90.7979 19.7847 91.6282 20.0246 92.3038 20.5045C92.9857 20.978 93.4655 21.6252 93.7434 22.446H93.8949C94.2169 21.6378 94.7599 20.9938 95.5239 20.5139C96.2942 20.0278 97.2065 19.7847 98.2609 19.7847C99.5995 19.7847 100.692 20.2077 101.538 21.0538C102.384 21.8998 102.807 23.1342 102.807 24.7569V34.5212H99.369V25.2872C99.369 24.3843 99.1291 23.7245 98.6492 23.3078C98.1694 22.8848 97.5822 22.6733 96.8877 22.6733C96.0605 22.6733 95.4134 22.9322 94.9461 23.4499C94.4852 23.9613 94.2548 24.6274 94.2548 25.4482V34.5212H90.8926V25.1452C90.8926 24.3938 90.6653 23.794 90.2107 23.3457C89.7625 22.8974 89.1753 22.6733 88.4492 22.6733C87.9567 22.6733 87.5084 22.7996 87.1043 23.0521C86.7002 23.2984 86.3782 23.6488 86.1383 24.1034C85.8984 24.5517 85.7784 25.0757 85.7784 25.6755V34.5212H82.35ZM112.725 34.8054C111.267 34.8054 110.007 34.5023 108.946 33.8962C107.892 33.2837 107.081 32.4187 106.512 31.3012C105.944 30.1773 105.66 28.8546 105.66 27.3329C105.66 25.8365 105.944 24.5232 106.512 23.3931C107.087 22.2566 107.889 21.3726 108.918 20.7412C109.947 20.1035 111.156 19.7847 112.545 19.7847C113.442 19.7847 114.288 19.9299 115.083 20.2203C115.885 20.5045 116.592 20.9464 117.205 21.5463C117.824 22.1461 118.31 22.9101 118.663 23.8382C119.017 24.76 119.194 25.8586 119.194 27.134V28.1853H107.27V25.8744H115.907C115.901 25.2178 115.759 24.6337 115.481 24.1223C115.203 23.6046 114.815 23.1973 114.316 22.9006C113.824 22.6038 113.249 22.4555 112.593 22.4555C111.892 22.4555 111.276 22.6259 110.746 22.9669C110.215 23.3015 109.802 23.7435 109.505 24.2928C109.215 24.8358 109.066 25.4324 109.06 26.0828V28.1C109.06 28.9461 109.215 29.6722 109.524 30.2783C109.833 30.8781 110.266 31.3391 110.822 31.6611C111.377 31.9768 112.027 32.1346 112.773 32.1346C113.271 32.1346 113.723 32.0651 114.127 31.9262C114.531 31.781 114.881 31.5695 115.178 31.2917C115.475 31.0139 115.699 30.6698 115.851 30.2594L119.052 30.6193C118.85 31.4653 118.464 32.2041 117.896 32.8354C117.334 33.4605 116.615 33.9467 115.737 34.2939C114.859 34.6349 113.855 34.8054 112.725 34.8054ZM122.246 34.5212V15.1251H129.519C131.009 15.1251 132.259 15.3839 133.27 15.9017C134.286 16.4194 135.053 17.1455 135.571 18.0799C136.095 19.0081 136.357 20.0909 136.357 21.3284C136.357 22.5723 136.092 23.6519 135.562 24.5674C135.038 25.4766 134.264 26.1806 133.241 26.6794C132.218 27.1719 130.962 27.4181 129.472 27.4181H124.291V24.5011H128.998C129.87 24.5011 130.583 24.3812 131.139 24.1413C131.694 23.895 132.105 23.5383 132.37 23.0711C132.641 22.5975 132.777 22.0166 132.777 21.3284C132.777 20.6402 132.641 20.053 132.37 19.5669C132.098 19.0744 131.685 18.7019 131.129 18.4493C130.574 18.1904 129.857 18.061 128.979 18.061H125.759V34.5212H122.246ZM132.266 25.7323L137.067 34.5212H133.147L128.43 25.7323H132.266ZM143.626 34.8148C142.704 34.8148 141.874 34.6507 141.135 34.3224C140.403 33.9877 139.822 33.4952 139.393 32.8449C138.97 32.1946 138.758 31.3927 138.758 30.4393C138.758 29.6185 138.91 28.9398 139.213 28.4031C139.516 27.8664 139.929 27.4371 140.453 27.1151C140.977 26.7931 141.568 26.55 142.224 26.3858C142.887 26.2154 143.572 26.0922 144.279 26.0165C145.132 25.9281 145.823 25.8492 146.354 25.7797C146.884 25.7039 147.269 25.5903 147.509 25.4388C147.755 25.2809 147.878 25.0378 147.878 24.7095V24.6527C147.878 23.9392 147.667 23.3867 147.244 22.9953C146.821 22.6038 146.212 22.4081 145.416 22.4081C144.576 22.4081 143.91 22.5912 143.418 22.9574C142.931 23.3236 142.603 23.7561 142.433 24.2549L139.232 23.8003C139.484 22.9164 139.901 22.1776 140.482 21.5841C141.063 20.9843 141.773 20.536 142.613 20.2393C143.452 19.9362 144.381 19.7847 145.397 19.7847C146.098 19.7847 146.796 19.8668 147.49 20.0309C148.185 20.1951 148.819 20.4666 149.394 20.8454C149.968 21.2179 150.429 21.7262 150.776 22.3702C151.13 23.0142 151.307 23.8192 151.307 24.7853V34.5212H148.011V32.5229H147.897C147.689 32.927 147.395 33.3058 147.017 33.6594C146.644 34.0067 146.174 34.2876 145.605 34.5023C145.043 34.7107 144.384 34.8148 143.626 34.8148ZM144.516 32.2956C145.204 32.2956 145.801 32.1599 146.306 31.8884C146.811 31.6106 147.2 31.2443 147.471 30.7897C147.749 30.3352 147.888 29.8395 147.888 29.3028V27.5886C147.781 27.677 147.597 27.7591 147.339 27.8349C147.086 27.9106 146.802 27.9769 146.486 28.0337C146.17 28.0906 145.858 28.1411 145.549 28.1853C145.239 28.2295 144.971 28.2674 144.744 28.2989C144.232 28.3684 143.774 28.482 143.37 28.6399C142.966 28.7977 142.647 29.0187 142.414 29.3028C142.18 29.5806 142.063 29.9405 142.063 30.3825C142.063 31.0139 142.294 31.4906 142.755 31.8126C143.216 32.1346 143.803 32.2956 144.516 32.2956ZM162.018 19.9741V22.6259H153.656V19.9741H162.018ZM155.72 16.4889H159.149V30.1457C159.149 30.6066 159.218 30.9602 159.357 31.2065C159.502 31.4464 159.692 31.6106 159.925 31.6989C160.159 31.7873 160.418 31.8315 160.702 31.8315C160.917 31.8315 161.112 31.8158 161.289 31.7842C161.472 31.7526 161.611 31.7242 161.706 31.6989L162.283 34.3792C162.1 34.4423 161.838 34.5118 161.497 34.5875C161.163 34.6633 160.752 34.7075 160.266 34.7201C159.407 34.7454 158.634 34.6159 157.946 34.3318C157.258 34.0414 156.711 33.5931 156.307 32.987C155.91 32.3808 155.714 31.6232 155.72 30.714V16.4889ZM171.169 34.8054C169.711 34.8054 168.451 34.5023 167.391 33.8962C166.336 33.2837 165.525 32.4187 164.957 31.3012C164.388 30.1773 164.104 28.8546 164.104 27.3329C164.104 25.8365 164.388 24.5232 164.957 23.3931C165.531 22.2566 166.333 21.3726 167.362 20.7412C168.391 20.1035 169.6 19.7847 170.989 19.7847C171.886 19.7847 172.732 19.9299 173.528 20.2203C174.33 20.5045 175.037 20.9464 175.649 21.5463C176.268 22.1461 176.754 22.9101 177.108 23.8382C177.461 24.76 177.638 25.8586 177.638 27.134V28.1853H165.714V25.8744H174.352C174.345 25.2178 174.203 24.6337 173.925 24.1223C173.648 23.6046 173.259 23.1973 172.761 22.9006C172.268 22.6038 171.693 22.4555 171.037 22.4555C170.336 22.4555 169.72 22.6259 169.19 22.9669C168.66 23.3015 168.246 23.7435 167.949 24.2928C167.659 24.8358 167.511 25.4324 167.504 26.0828V28.1C167.504 28.9461 167.659 29.6722 167.968 30.2783C168.278 30.8781 168.71 31.3391 169.266 31.6611C169.821 31.9768 170.472 32.1346 171.217 32.1346C171.716 32.1346 172.167 32.0651 172.571 31.9262C172.975 31.781 173.326 31.5695 173.622 31.2917C173.919 31.0139 174.143 30.6698 174.295 30.2594L177.496 30.6193C177.294 31.4653 176.909 32.2041 176.34 32.8354C175.779 33.4605 175.059 33.9467 174.181 34.2939C173.304 34.6349 172.3 34.8054 171.169 34.8054Z" fill="#1C02BD"/>
<path d="M52.0371 20.9741V23.6259H43.4376V20.9741H52.0371ZM45.5875 35.5212V19.6008C45.5875 18.6222 45.7895 17.8077 46.1936 17.1574C46.604 16.5071 47.1533 16.0209 47.8415 15.6989C48.5297 15.3769 49.2937 15.2159 50.1334 15.2159C50.7269 15.2159 51.2541 15.2632 51.7151 15.3579C52.176 15.4526 52.5169 15.5379 52.7379 15.6136L52.056 18.2655C51.9108 18.2213 51.7277 18.1771 51.5067 18.1329C51.2857 18.0824 51.0395 18.0571 50.768 18.0571C50.1303 18.0571 49.6788 18.2118 49.4137 18.5212C49.1548 18.8242 49.0254 19.2599 49.0254 19.8281V35.5212H45.5875ZM54.722 35.5212V20.9741H58.0463V23.3986H58.1978C58.463 22.5589 58.9176 21.9117 59.5616 21.4571C60.2119 20.9962 60.9538 20.7658 61.7872 20.7658C61.9767 20.7658 62.1882 20.7752 62.4218 20.7942C62.6617 20.8068 62.8606 20.8289 63.0184 20.8605V24.0142C62.8732 23.9637 62.6428 23.9195 62.3271 23.8816C62.0177 23.8374 61.7178 23.8153 61.4274 23.8153C60.8023 23.8153 60.2403 23.9511 59.7416 24.2226C59.2491 24.4878 58.8608 24.8571 58.5766 25.3307C58.2925 25.8042 58.1505 26.3504 58.1505 26.9691V35.5212H54.722ZM69.2218 35.8148C68.3 35.8148 67.4697 35.6507 66.731 35.3224C65.9986 34.9877 65.4177 34.4952 64.9884 33.8449C64.5653 33.1946 64.3538 32.3927 64.3538 31.4393C64.3538 30.6185 64.5054 29.9398 64.8084 29.4031C65.1115 28.8664 65.525 28.4371 66.0491 28.1151C66.5732 27.7931 67.1635 27.55 67.8201 27.3858C68.4831 27.2154 69.1681 27.0922 69.8753 27.0165C70.7277 26.9281 71.419 26.8492 71.9494 26.7797C72.4798 26.7039 72.8649 26.5903 73.1048 26.4388C73.3511 26.2809 73.4742 26.0378 73.4742 25.7095V25.6527C73.4742 24.9392 73.2627 24.3867 72.8397 23.9953C72.4166 23.6038 71.8073 23.4081 71.0118 23.4081C70.1721 23.4081 69.5059 23.5912 69.0135 23.9574C68.5273 24.3236 68.199 24.7561 68.0285 25.2549L64.8274 24.8003C65.0799 23.9164 65.4966 23.1776 66.0775 22.5841C66.6584 21.9843 67.3687 21.536 68.2084 21.2393C69.0482 20.9362 69.9763 20.7847 70.9929 20.7847C71.6937 20.7847 72.3914 20.8668 73.0859 21.0309C73.7804 21.1951 74.415 21.4666 74.9895 21.8454C75.5641 22.2179 76.025 22.7262 76.3723 23.3702C76.7258 24.0142 76.9026 24.8192 76.9026 25.7853V35.5212H73.6068V33.5229H73.4931C73.2848 33.927 72.9912 34.3058 72.6124 34.6594C72.2398 35.0067 71.7695 35.2876 71.2012 35.5023C70.6393 35.7107 69.9795 35.8148 69.2218 35.8148ZM70.1121 33.2956C70.8003 33.2956 71.3969 33.1599 71.902 32.8884C72.4072 32.6106 72.7955 32.2443 73.067 31.7897C73.3448 31.3352 73.4837 30.8395 73.4837 30.3028V28.5886C73.3763 28.677 73.1932 28.7591 72.9344 28.8349C72.6818 28.9106 72.3977 28.9769 72.082 29.0337C71.7663 29.0906 71.4538 29.1411 71.1444 29.1853C70.835 29.2295 70.5667 29.2674 70.3394 29.2989C69.8279 29.3684 69.3702 29.482 68.9661 29.6399C68.562 29.7977 68.2432 30.0187 68.0096 30.3028C67.7759 30.5806 67.6591 30.9405 67.6591 31.3825C67.6591 32.0139 67.8896 32.4906 68.3505 32.8126C68.8114 33.1346 69.3986 33.2956 70.1121 33.2956ZM80.35 35.5212V20.9741H83.6269V23.446H83.7974C84.1004 22.6126 84.6024 21.9622 85.3032 21.495C86.0041 21.0215 86.8406 20.7847 87.813 20.7847C88.7979 20.7847 89.6282 21.0246 90.3038 21.5045C90.9857 21.978 91.4655 22.6252 91.7434 23.446H91.8949C92.2169 22.6378 92.7599 21.9938 93.5239 21.5139C94.2942 21.0278 95.2065 20.7847 96.2609 20.7847C97.5995 20.7847 98.6918 21.2077 99.5378 22.0538C100.384 22.8998 100.807 24.1342 100.807 25.7569V35.5212H97.369V26.2872C97.369 25.3843 97.1291 24.7245 96.6492 24.3078C96.1694 23.8848 95.5822 23.6733 94.8877 23.6733C94.0605 23.6733 93.4134 23.9322 92.9461 24.4499C92.4852 24.9613 92.2548 25.6274 92.2548 26.4482V35.5212H88.8926V26.1452C88.8926 25.3938 88.6653 24.794 88.2107 24.3457C87.7625 23.8974 87.1753 23.6733 86.4492 23.6733C85.9567 23.6733 85.5084 23.7996 85.1043 24.0521C84.7002 24.2984 84.3782 24.6488 84.1383 25.1034C83.8984 25.5517 83.7784 26.0757 83.7784 26.6755V35.5212H80.35ZM110.725 35.8054C109.267 35.8054 108.007 35.5023 106.946 34.8962C105.892 34.2837 105.081 33.4187 104.512 32.3012C103.944 31.1773 103.66 29.8546 103.66 28.3329C103.66 26.8365 103.944 25.5232 104.512 24.3931C105.087 23.2566 105.889 22.3726 106.918 21.7412C107.947 21.1035 109.156 20.7847 110.545 20.7847C111.442 20.7847 112.288 20.9299 113.083 21.2203C113.885 21.5045 114.592 21.9464 115.205 22.5463C115.824 23.1461 116.31 23.9101 116.663 24.8382C117.017 25.76 117.194 26.8586 117.194 28.134V29.1853H105.27V26.8744H113.907C113.901 26.2178 113.759 25.6337 113.481 25.1223C113.203 24.6046 112.815 24.1973 112.316 23.9006C111.824 23.6038 111.249 23.4555 110.593 23.4555C109.892 23.4555 109.276 23.6259 108.746 23.9669C108.215 24.3015 107.802 24.7435 107.505 25.2928C107.215 25.8358 107.066 26.4324 107.06 27.0828V29.1C107.06 29.9461 107.215 30.6722 107.524 31.2783C107.833 31.8781 108.266 32.3391 108.822 32.6611C109.377 32.9768 110.027 33.1346 110.773 33.1346C111.271 33.1346 111.723 33.0651 112.127 32.9262C112.531 32.781 112.881 32.5695 113.178 32.2917C113.475 32.0139 113.699 31.6698 113.851 31.2594L117.052 31.6193C116.85 32.4653 116.464 33.2041 115.896 33.8354C115.334 34.4605 114.615 34.9467 113.737 35.2939C112.859 35.6349 111.855 35.8054 110.725 35.8054ZM120.246 35.5212V16.1251H127.519C129.009 16.1251 130.259 16.3839 131.27 16.9017C132.286 17.4194 133.053 18.1455 133.571 19.0799C134.095 20.0081 134.357 21.0909 134.357 22.3284C134.357 23.5723 134.092 24.6519 133.562 25.5674C133.038 26.4766 132.264 27.1806 131.241 27.6794C130.218 28.1719 128.962 28.4181 127.472 28.4181H122.291V25.5011H126.998C127.87 25.5011 128.583 25.3812 129.139 25.1413C129.694 24.895 130.105 24.5383 130.37 24.0711C130.641 23.5975 130.777 23.0166 130.777 22.3284C130.777 21.6402 130.641 21.053 130.37 20.5669C130.098 20.0744 129.685 19.7019 129.129 19.4493C128.574 19.1904 127.857 19.061 126.979 19.061H123.759V35.5212H120.246ZM130.266 26.7323L135.067 35.5212H131.147L126.43 26.7323H130.266ZM141.626 35.8148C140.704 35.8148 139.874 35.6507 139.135 35.3224C138.403 34.9877 137.822 34.4952 137.393 33.8449C136.97 33.1946 136.758 32.3927 136.758 31.4393C136.758 30.6185 136.91 29.9398 137.213 29.4031C137.516 28.8664 137.929 28.4371 138.453 28.1151C138.977 27.7931 139.568 27.55 140.224 27.3858C140.887 27.2154 141.572 27.0922 142.279 27.0165C143.132 26.9281 143.823 26.8492 144.354 26.7797C144.884 26.7039 145.269 26.5903 145.509 26.4388C145.755 26.2809 145.878 26.0378 145.878 25.7095V25.6527C145.878 24.9392 145.667 24.3867 145.244 23.9953C144.821 23.6038 144.212 23.4081 143.416 23.4081C142.576 23.4081 141.91 23.5912 141.418 23.9574C140.931 24.3236 140.603 24.7561 140.433 25.2549L137.232 24.8003C137.484 23.9164 137.901 23.1776 138.482 22.5841C139.063 21.9843 139.773 21.536 140.613 21.2393C141.452 20.9362 142.381 20.7847 143.397 20.7847C144.098 20.7847 144.796 20.8668 145.49 21.0309C146.185 21.1951 146.819 21.4666 147.394 21.8454C147.968 22.2179 148.429 22.7262 148.776 23.3702C149.13 24.0142 149.307 24.8192 149.307 25.7853V35.5212H146.011V33.5229H145.897C145.689 33.927 145.395 34.3058 145.017 34.6594C144.644 35.0067 144.174 35.2876 143.605 35.5023C143.043 35.7107 142.384 35.8148 141.626 35.8148ZM142.516 33.2956C143.204 33.2956 143.801 33.1599 144.306 32.8884C144.811 32.6106 145.2 32.2443 145.471 31.7897C145.749 31.3352 145.888 30.8395 145.888 30.3028V28.5886C145.781 28.677 145.597 28.7591 145.339 28.8349C145.086 28.9106 144.802 28.9769 144.486 29.0337C144.17 29.0906 143.858 29.1411 143.549 29.1853C143.239 29.2295 142.971 29.2674 142.744 29.2989C142.232 29.3684 141.774 29.482 141.37 29.6399C140.966 29.7977 140.647 30.0187 140.414 30.3028C140.18 30.5806 140.063 30.9405 140.063 31.3825C140.063 32.0139 140.294 32.4906 140.755 32.8126C141.216 33.1346 141.803 33.2956 142.516 33.2956ZM160.018 20.9741V23.6259H151.656V20.9741H160.018ZM153.72 17.4889H157.149V31.1457C157.149 31.6066 157.218 31.9602 157.357 32.2065C157.502 32.4464 157.692 32.6106 157.925 32.6989C158.159 32.7873 158.418 32.8315 158.702 32.8315C158.917 32.8315 159.112 32.8158 159.289 32.7842C159.472 32.7526 159.611 32.7242 159.706 32.6989L160.283 35.3792C160.1 35.4423 159.838 35.5118 159.497 35.5875C159.163 35.6633 158.752 35.7075 158.266 35.7201C157.407 35.7454 156.634 35.6159 155.946 35.3318C155.258 35.0414 154.711 34.5931 154.307 33.987C153.91 33.3808 153.714 32.6232 153.72 31.714V17.4889ZM169.169 35.8054C167.711 35.8054 166.451 35.5023 165.391 34.8962C164.336 34.2837 163.525 33.4187 162.957 32.3012C162.388 31.1773 162.104 29.8546 162.104 28.3329C162.104 26.8365 162.388 25.5232 162.957 24.3931C163.531 23.2566 164.333 22.3726 165.362 21.7412C166.391 21.1035 167.6 20.7847 168.989 20.7847C169.886 20.7847 170.732 20.9299 171.528 21.2203C172.33 21.5045 173.037 21.9464 173.649 22.5463C174.268 23.1461 174.754 23.9101 175.108 24.8382C175.461 25.76 175.638 26.8586 175.638 28.134V29.1853H163.714V26.8744H172.352C172.345 26.2178 172.203 25.6337 171.925 25.1223C171.648 24.6046 171.259 24.1973 170.761 23.9006C170.268 23.6038 169.693 23.4555 169.037 23.4555C168.336 23.4555 167.72 23.6259 167.19 23.9669C166.66 24.3015 166.246 24.7435 165.949 25.2928C165.659 25.8358 165.511 26.4324 165.504 27.0828V29.1C165.504 29.9461 165.659 30.6722 165.968 31.2783C166.278 31.8781 166.71 32.3391 167.266 32.6611C167.821 32.9768 168.472 33.1346 169.217 33.1346C169.716 33.1346 170.167 33.0651 170.571 32.9262C170.975 32.781 171.326 32.5695 171.622 32.2917C171.919 32.0139 172.143 31.6698 172.295 31.2594L175.496 31.6193C175.294 32.4653 174.909 33.2041 174.34 33.8354C173.779 34.4605 173.059 34.9467 172.181 35.2939C171.304 35.6349 170.3 35.8054 169.169 35.8054Z" fill="white"/>
</svg>
